<?xml version="1.0" encoding="UTF-8" standalone="no"?>
<svg xmlns="http://www.w3.org/2000/svg" xmlns:xlink="http://www.w3.org/1999/xlink" contentScriptType="application/ecmascript" contentStyleType="text/css" height="443px" preserveAspectRatio="none" style="width:715px;height:443px;" version="1.1" viewBox="0 0 715 443" width="715px" zoomAndPan="magnify"><defs><filter height="300%" id="fp9csyeh0ef9g" width="300%" x="-1" y="-1"><feGaussianBlur result="blurOut" stdDeviation="2.0"/><feColorMatrix in="blurOut" result="blurOut2" type="matrix" values="0 0 0 0 0 0 0 0 0 0 0 0 0 0 0 0 0 0 .4 0"/><feOffset dx="4.0" dy="4.0" in="blurOut2" result="blurOut3"/><feBlend in="SourceGraphic" in2="blurOut3" mode="normal"/></filter></defs><g><ellipse cx="378" cy="18" fill="#000000" filter="url(#fp9csyeh0ef9g)" rx="10" ry="10" style="stroke: none; stroke-width: 1.0;"/><rect fill="#FEFECE" filter="url(#fp9csyeh0ef9g)" height="50" rx="12.5" ry="12.5" style="stroke: #A80036; stroke-width: 1.5;" width="50" x="117" y="232"/><line style="stroke: #A80036; stroke-width: 1.5;" x1="117" x2="167" y1="258.2969" y2="258.2969"/><text fill="#000000" font-family="sans-serif" font-size="14" lengthAdjust="spacingAndGlyphs" textLength="24" x="130" y="249.9951">Not</text><rect fill="#000000" filter="url(#fp9csyeh0ef9g)" height="8" style="stroke: none; stroke-width: 1.0;" width="80" x="323" y="343"/><rect fill="#FEFECE" filter="url(#fp9csyeh0ef9g)" height="50" rx="12.5" ry="12.5" style="stroke: #A80036; stroke-width: 1.5;" width="53" x="202.5" y="232"/><line style="stroke: #A80036; stroke-width: 1.5;" x1="202.5" x2="255.5" y1="258.2969" y2="258.2969"/><text fill="#000000" font-family="sans-serif" font-size="14" lengthAdjust="spacingAndGlyphs" textLength="33" x="212.5" y="249.9951">Opar</text><rect fill="#FEFECE" filter="url(#fp9csyeh0ef9g)" height="50" rx="12.5" ry="12.5" style="stroke: #A80036; stroke-width: 1.5;" width="52" x="291" y="232"/><line style="stroke: #A80036; stroke-width: 1.5;" x1="291" x2="343" y1="258.2969" y2="258.2969"/><text fill="#000000" font-family="sans-serif" font-size="14" lengthAdjust="spacingAndGlyphs" textLength="32" x="301" y="249.9951">Cpar</text><rect fill="#FEFECE" filter="url(#fp9csyeh0ef9g)" height="50" rx="12.5" ry="12.5" style="stroke: #A80036; stroke-width: 1.5;" width="66" x="378" y="232"/><line style="stroke: #A80036; stroke-width: 1.5;" x1="378" x2="444" y1="258.2969" y2="258.2969"/><text fill="#000000" font-family="sans-serif" font-size="14" lengthAdjust="spacingAndGlyphs" textLength="46" x="388" y="249.9951">Assign</text><rect fill="#FEFECE" filter="url(#fp9csyeh0ef9g)" height="50" rx="12.5" ry="12.5" style="stroke: #A80036; stroke-width: 1.5;" width="54" x="479" y="232"/><line style="stroke: #A80036; stroke-width: 1.5;" x1="479" x2="533" y1="258.2969" y2="258.2969"/><text fill="#000000" font-family="sans-serif" font-size="14" lengthAdjust="spacingAndGlyphs" textLength="34" x="489" y="249.9951">Semi</text><rect fill="#FEFECE" filter="url(#fp9csyeh0ef9g)" height="50" rx="12.5" ry="12.5" style="stroke: #A80036; stroke-width: 1.5;" width="50" x="548" y="105"/><line style="stroke: #A80036; stroke-width: 1.5;" x1="548" x2="598" y1="131.2969" y2="131.2969"/><text fill="#000000" font-family="sans-serif" font-size="14" lengthAdjust="spacingAndGlyphs" textLength="18" x="564" y="122.9951">T0</text><rect fill="#FEFECE" filter="url(#fp9csyeh0ef9g)" height="50" rx="12.5" ry="12.5" style="stroke: #A80036; stroke-width: 1.5;" width="50" x="568" y="232"/><line style="stroke: #A80036; stroke-width: 1.5;" x1="568" x2="618" y1="258.2969" y2="258.2969"/><text fill="#000000" font-family="sans-serif" font-size="14" lengthAdjust="spacingAndGlyphs" textLength="27" x="579.5" y="249.9951">And</text><rect fill="#FEFECE" filter="url(#fp9csyeh0ef9g)" height="50" rx="12.5" ry="12.5" style="stroke: #A80036; stroke-width: 1.5;" width="50" x="635" y="105"/><line style="stroke: #A80036; stroke-width: 1.5;" x1="635" x2="685" y1="131.2969" y2="131.2969"/><text fill="#000000" font-family="sans-serif" font-size="14" lengthAdjust="spacingAndGlyphs" textLength="18" x="651" y="122.9951">T1</text><rect fill="#FEFECE" filter="url(#fp9csyeh0ef9g)" height="50" rx="12.5" ry="12.5" style="stroke: #A80036; stroke-width: 1.5;" width="50" x="653" y="232"/><line style="stroke: #A80036; stroke-width: 1.5;" x1="653" x2="703" y1="258.2969" y2="258.2969"/><text fill="#000000" font-family="sans-serif" font-size="14" lengthAdjust="spacingAndGlyphs" textLength="16" x="670" y="249.9951">Or</text><rect fill="#FEFECE" filter="url(#fp9csyeh0ef9g)" height="50" rx="12.5" ry="12.5" style="stroke: #A80036; stroke-width: 1.5;" width="50" x="6" y="105"/><line style="stroke: #A80036; stroke-width: 1.5;" x1="6" x2="56" y1="131.2969" y2="131.2969"/><text fill="#000000" font-family="sans-serif" font-size="14" lengthAdjust="spacingAndGlyphs" textLength="18" x="22" y="122.9951">T2</text><rect fill="#FEFECE" filter="url(#fp9csyeh0ef9g)" height="50" rx="12.5" ry="12.5" style="stroke: #A80036; stroke-width: 1.5;" width="50" x="16" y="232"/><line style="stroke: #A80036; stroke-width: 1.5;" x1="16" x2="66" y1="258.2969" y2="258.2969"/><text fill="#000000" font-family="sans-serif" font-size="14" lengthAdjust="spacingAndGlyphs" textLength="22" x="30" y="249.9951">Var</text><ellipse cx="363" cy="422" fill="none" filter="url(#fp9csyeh0ef9g)" rx="10" ry="10" style="stroke: #000000; stroke-width: 1.0;"/><ellipse cx="363.5" cy="422.5" fill="#000000" rx="6" ry="6" style="stroke: none; stroke-width: 1.0;"/><!--MD5=[2acc20a1779be88029942dd6dfe9318d]
link *start to Not--><path d="M370.532,24.973 C353.662,38.576 311.543,73.152 279,105 C237.236,145.872 192.364,196.825 165.76,227.86 " fill="none" id="*start-&gt;Not" style="stroke: #A80036; stroke-width: 1.0;"/><polygon fill="#A80036" points="162.289,231.917,171.1786,227.6772,165.5388,228.1172,165.0989,222.4775,162.289,231.917" style="stroke: #A80036; stroke-width: 1.0;"/><text fill="#000000" font-family="sans-serif" font-size="13" lengthAdjust="spacingAndGlyphs" textLength="5" x="280" y="134.5669">!</text><!--MD5=[768e039a14b7766af8c31eb5cd05ae7a]
link Not to C--><path d="M167.11,272.918 C172.894,276.1 179.086,279.308 185,282 C243.488,308.62 316.562,331.938 347.751,341.4484 " fill="none" id="Not-&gt;C" style="stroke: #A80036; stroke-width: 1.0;"/><polygon fill="#A80036" points="352.733,342.9584,345.2798,336.5202,347.9479,341.5084,342.9598,344.1764,352.733,342.9584" style="stroke: #A80036; stroke-width: 1.0;"/><!--MD5=[d36c8dcfb44909ddac3924927b44e2b6]
link *start to Opar--><path d="M373.043,26.885 C353.495,57.978 281.162,173.031 247.039,227.307 " fill="none" id="*start-&gt;Opar" style="stroke: #A80036; stroke-width: 1.0;"/><polygon fill="#A80036" points="244.254,231.737,252.4308,226.247,246.9154,227.5042,245.6583,221.9888,244.254,231.737" style="stroke: #A80036; stroke-width: 1.0;"/><text fill="#000000" font-family="sans-serif" font-size="13" lengthAdjust="spacingAndGlyphs" textLength="5" x="325" y="134.5669">(</text><!--MD5=[710db67c7ec0467658ca3a84383d6551]
link Opar to C--><path d="M255.795,275.597 C286.212,295.572 334.172,327.068 353.981,340.0769 " fill="none" id="Opar-&gt;C" style="stroke: #A80036; stroke-width: 1.0;"/><polygon fill="#A80036" points="358.383,342.9677,353.0555,334.6841,354.2035,340.2233,348.6644,341.3713,358.383,342.9677" style="stroke: #A80036; stroke-width: 1.0;"/><!--MD5=[635fdba5b10c77395ac12522d887d359]
link *start to Cpar--><path d="M375.683,28.001 C367.314,60.52 338.406,172.831 324.538,226.713 " fill="none" id="*start-&gt;Cpar" style="stroke: #A80036; stroke-width: 1.0;"/><polygon fill="#A80036" points="323.244,231.74,329.3605,224.0206,324.4899,226.8977,321.6129,222.0272,323.244,231.74" style="stroke: #A80036; stroke-width: 1.0;"/><text fill="#000000" font-family="sans-serif" font-size="13" lengthAdjust="spacingAndGlyphs" textLength="5" x="357" y="134.5669">)</text><!--MD5=[1605af9e312f20472d96447d5f208ec9]
link Cpar to C--><path d="M329.57,282.046 C339.439,300.926 352.558,326.024 359.036,338.4162 " fill="none" id="Cpar-&gt;C" style="stroke: #A80036; stroke-width: 1.0;"/><polygon fill="#A80036" points="361.376,342.8939,360.7516,333.0649,359.0597,338.4628,353.6618,336.7709,361.376,342.8939" style="stroke: #A80036; stroke-width: 1.0;"/><!--MD5=[212af0cd211f6c0d0dbedaad65b2213a]
link *start to Assign--><path d="M379.253,28.001 C383.781,60.52 399.42,172.831 406.922,226.713 " fill="none" id="*start-&gt;Assign" style="stroke: #A80036; stroke-width: 1.0;"/><polygon fill="#A80036" points="407.622,231.74,410.3446,222.2749,406.9335,226.7876,402.4208,223.3765,407.622,231.74" style="stroke: #A80036; stroke-width: 1.0;"/><text fill="#000000" font-family="sans-serif" font-size="13" lengthAdjust="spacingAndGlyphs" textLength="11" x="398" y="134.5669">=</text><!--MD5=[8a449baab695dc7ee74af3f6c4f5fddb]
link Assign to C--><path d="M397.884,282.046 C387.586,300.926 373.896,326.024 367.137,338.4162 " fill="none" id="Assign-&gt;C" style="stroke: #A80036; stroke-width: 1.0;"/><polygon fill="#A80036" points="364.694,342.8939,372.515,336.9079,367.0881,338.5043,365.4916,333.0774,364.694,342.8939" style="stroke: #A80036; stroke-width: 1.0;"/><!--MD5=[4212dc183d9c633f117d5b7438651778]
link *start to Semi--><path d="M384.659,25.76 C391.773,33.22 403.092,45.792 411,58 C447.651,114.58 478.992,187.455 494.874,227.126 " fill="none" id="*start-&gt;Semi" style="stroke: #A80036; stroke-width: 1.0;"/><polygon fill="#A80036" points="496.734,231.796,497.1205,221.9547,494.8842,227.1508,489.6882,224.9144,496.734,231.796" style="stroke: #A80036; stroke-width: 1.0;"/><text fill="#000000" font-family="sans-serif" font-size="13" lengthAdjust="spacingAndGlyphs" textLength="4" x="465" y="134.5669">;</text><!--MD5=[6b50d903175a1f2e89905b3b1d39242c]
link Semi to C--><path d="M478.766,274.759 C446.357,294.703 393.943,326.958 372.552,340.1218 " fill="none" id="Semi-&gt;C" style="stroke: #A80036; stroke-width: 1.0;"/><polygon fill="#A80036" points="368.032,342.9035,377.7934,341.5941,372.2905,340.2834,373.6012,334.7804,368.032,342.9035" style="stroke: #A80036; stroke-width: 1.0;"/><!--MD5=[ff6b9b8656273177c81e5d336f561d8d]
link *start to T0--><path d="M388.181,19.157 C414.055,20.041 483.433,25.497 528,58 C542.513,68.585 553.473,85.404 560.941,100.016 " fill="none" id="*start-&gt;T0" style="stroke: #A80036; stroke-width: 1.0;"/><polygon fill="#A80036" points="563.341,104.875,562.9441,95.0341,561.1278,100.3915,555.7705,98.5752,563.341,104.875" style="stroke: #A80036; stroke-width: 1.0;"/><text fill="#000000" font-family="sans-serif" font-size="13" lengthAdjust="spacingAndGlyphs" textLength="11" x="546" y="71.0669">&amp;</text><!--MD5=[7155050859956f6acfbef5a80330c56a]
link T0 to And--><path d="M576.856,155.101 C580.135,175.593 584.852,205.076 588.341,226.884 " fill="none" id="T0-&gt;And" style="stroke: #A80036; stroke-width: 1.0;"/><polygon fill="#A80036" points="589.156,231.973,591.6837,222.454,588.366,227.0358,583.7842,223.7181,589.156,231.973" style="stroke: #A80036; stroke-width: 1.0;"/><text fill="#000000" font-family="sans-serif" font-size="13" lengthAdjust="spacingAndGlyphs" textLength="11" x="586" y="198.0669">&amp;</text><!--MD5=[a69a3a51eb664126d9ba3ac26b40d6f5]
link And to C--><path d="M567.921,272.986 C562.135,276.164 555.934,279.354 550,282 C488.718,309.324 411.952,332.2457 379.11,341.5489 " fill="none" id="And-&gt;C" style="stroke: #A80036; stroke-width: 1.0;"/><polygon fill="#A80036" points="374.226,342.9237,383.9734,344.3337,379.0387,341.5681,381.8044,336.6334,374.226,342.9237" style="stroke: #A80036; stroke-width: 1.0;"/><!--MD5=[dc3f55add99216452b71992f022b98cd]
link *start to T1--><path d="M388.268,19.552 C417.397,21.441 502.551,29.229 566,58 C589.897,68.836 613.45,86.643 631.003,101.713 " fill="none" id="*start-&gt;T1" style="stroke: #A80036; stroke-width: 1.0;"/><polygon fill="#A80036" points="634.88,105.081,630.7087,96.1591,631.1053,101.8021,625.4623,102.1987,634.88,105.081" style="stroke: #A80036; stroke-width: 1.0;"/><text fill="#000000" font-family="sans-serif" font-size="13" lengthAdjust="spacingAndGlyphs" textLength="4" x="596" y="71.0669">|</text><!--MD5=[25efb6dfd34e788e89d00a2d9d45ded6]
link T1 to Or--><path d="M663.471,155.101 C666.421,175.593 670.667,205.076 673.807,226.884 " fill="none" id="T1-&gt;Or" style="stroke: #A80036; stroke-width: 1.0;"/><polygon fill="#A80036" points="674.54,231.973,677.2159,222.4946,673.8271,227.0241,669.2976,223.6353,674.54,231.973" style="stroke: #A80036; stroke-width: 1.0;"/><text fill="#000000" font-family="sans-serif" font-size="13" lengthAdjust="spacingAndGlyphs" textLength="4" x="672" y="198.0669">|</text><!--MD5=[959738f8c4cffb660afa7a5099d24422]
link Or to C--><path d="M652.645,273.674 C646.979,276.741 640.898,279.712 635,282 C548.598,315.52 439.678,334.6523 389.964,342.2036 " fill="none" id="Or-&gt;C" style="stroke: #A80036; stroke-width: 1.0;"/><polygon fill="#A80036" points="384.769,342.983,394.2634,345.6015,389.7135,342.2402,393.0748,337.6903,384.769,342.983" style="stroke: #A80036; stroke-width: 1.0;"/><!--MD5=[b2a7299ebd4431d7f73bf8f6dcf378e8]
link *start to T2--><path d="M368.016,18.896 C333.366,18.872 215.639,21.637 128,58 C102.911,68.41 78.2598,86.588 60.0865,101.944 " fill="none" id="*start-&gt;T2" style="stroke: #A80036; stroke-width: 1.0;"/><polygon fill="#A80036" points="56.0769,105.375,65.5155,102.562,59.8756,102.1239,60.3137,96.484,56.0769,105.375" style="stroke: #A80036; stroke-width: 1.0;"/><text fill="#000000" font-family="sans-serif" font-size="13" lengthAdjust="spacingAndGlyphs" textLength="30" x="129" y="71.0669">[a-z]</text><!--MD5=[c5f12cc6b5d4604100c1211f781f6af4]
link T2 to T2--><path d="M56.2777,119.51 C73.7734,116.332 91,119.828 91,130 C91,139.139 77.0949,142.889 61.5823,141.252 " fill="none" id="T2-&gt;T2" style="stroke: #A80036; stroke-width: 1.0;"/><polygon fill="#A80036" points="56.2777,140.49,64.6176,145.729,61.2269,141.2009,65.755,137.8102,56.2777,140.49" style="stroke: #A80036; stroke-width: 1.0;"/><text fill="#000000" font-family="sans-serif" font-size="13" lengthAdjust="spacingAndGlyphs" textLength="30" x="97" y="134.5669">[a-z]</text><!--MD5=[8cfdd54a928d441629af290801a13b89]
link T2 to Var--><path d="M32.9281,155.101 C34.5674,175.593 36.9261,205.076 38.6707,226.884 " fill="none" id="T2-&gt;Var" style="stroke: #A80036; stroke-width: 1.0;"/><polygon fill="#A80036" points="39.0778,231.973,42.3476,222.6828,38.6792,226.9889,34.3731,223.3205,39.0778,231.973" style="stroke: #A80036; stroke-width: 1.0;"/><!--MD5=[34052aaafc318b303a56ce1463ea8dbd]
link Var to C--><path d="M66.0912,269.376 C76.1858,273.69 88.0174,278.42 99,282 C187.509,310.849 296.485,333.2598 341.742,342.009 " fill="none" id="Var-&gt;C" style="stroke: #A80036; stroke-width: 1.0;"/><polygon fill="#A80036" points="346.686,342.9592,338.6018,337.3338,341.7757,342.0163,337.0932,345.1902,346.686,342.9592" style="stroke: #A80036; stroke-width: 1.0;"/><!--MD5=[6a85fad97473f3ca89fe62758889412b]
link C to *end--><path d="M363,351.1367 C363,360.5843 363,389.1957 363,406.7366 " fill="none" id="C-&gt;*end" style="stroke: #A80036; stroke-width: 1.0;"/><polygon fill="#A80036" points="363,411.7915,367,402.7915,363,406.7915,359,402.7915,363,411.7915" style="stroke: #A80036; stroke-width: 1.0;"/><!--MD5=[d65e341cd959101d089022556d5f43e3]
@startuml
[*] - -down-> Not: !
Not -down-> ==C==
[*] - -down-> Opar: (
Opar -down-> ==C==
[*] - -down-> Cpar: )
Cpar -down-> ==C==
[*] - -down-> Assign: =
Assign -down-> ==C==
[*] - -down-> Semi: ;
Semi -down-> ==C==
[*] -down-> T0: &
T0 -down-> And: &
And -down-> ==C==
[*] -down-> T1: |
T1 -down-> Or: |
Or -down-> ==C==
[*] -down-> T2: [a-z]
T2 -> T2: [a-z]
T2 -down-> Var
Var -down-> ==C==
==C== - -> [*]
@enduml

PlantUML version 1.2019.11(Sun Sep 22 10:02:15 UTC 2019)
(GPL source distribution)
Java Runtime: Java(TM) SE Runtime Environment
JVM: Java HotSpot(TM) 64-Bit Server VM
Java Version: 1.7.0_25-b15
Operating System: Linux
Default Encoding: UTF-8
Language: en
Country: US
--></g></svg>